<mxfile host="app.diagrams.net" modified="2024-07-04T20:52:35.403Z" agent="Mozilla/5.0 (Windows NT 10.0; Win64; x64) AppleWebKit/537.36 (KHTML, like Gecko) Chrome/126.0.0.0 Safari/537.36" version="24.5.5" etag="j49yWzlBom89ZU1m1A_y" type="github">
  <diagram name="PÃ¡gina-1" id="j3mHDP_7Y_itnt2AAKbd">
    <mxGraphModel>
      <root>
        <mxCell id="0" />
        <mxCell id="1" parent="0" />
      </root>
    </mxGraphModel>
  </diagram>
</mxfile>
